<?xml version="1.0" encoding="UTF-8"?>
<svg version="1.1" viewBox="0 0 1619 2048" width="1280" height="1280" xmlns="http://www.w3.org/2000/svg">
<path transform="translate(178,124)" d="m0 0h770l40 2 33 3 79 12 23 5 42 11 36 12 28 11 28 12 23 12 24 14 36 24 18 14 11 9 14 12 28 28 7 8 8 9 13 17 12 17 15 23 15 28 8 17 10 24 13 35 6 26 10 43 4 29 2 30 1 24v74l-2 40-2 20-5 25-9 38-6 25-15 40-13 29-14 27-13 21-9 12-13 18-8 10-24 28-18 18-10 8-11 9-14 11-20 14-19 12-19 11-22 12-29 14-24 10-28 10-38 12-24 6-50 10-27 4-44 4-34 2-109 1h-144l-83 1-43 1-1 510-1 19-3 6-5 3-6 1-29 1h-372l-11-1-4-3-1-7v-1610l2-4 4-2zm412 323v53l1 388h263l33-2 42-3 16-4 23-8 25-9 19-9 20-13 11-8 13-13 13-17 11-17 7-14 11-34 4-19 2-22v-59l-1-16-5-23-10-30-12-25-10-14-12-13-13-13-13-10-19-11-21-10-25-10-25-4-20-5-40-5-22-1z" fill="#00E09C"/>
<path transform="translate(178,124)" d="m0 0h755v1l-6 1-26 1-21 1-36 1h-37l-60 1h-361v2l-2-1h-7l-2 1v-2l-5 1-37-1h-62l-35-1-16 1-21 3-7 3-1 5-4 2-2 3h-2v2l-7 4-3 5-2 6h-2l-2 13-3 41-1 30v73l-1 50v44l5 33 1 16-2 16-1 21-1 31v13l1 29-1 36 1 25v117l1 18-2 22-2 9-1 11h-1l-1-25v-655l2-4 4-2z" fill="#00F1A7"/>
<path transform="translate(160,836)" d="m0 0h1l1 48 4 35v11l1 12v22l-1 7-1 40v66l-2 41v40l-1 14 1 12v39l1 13 1 35v19l-1 11v10l-2 14v273l1 41v74l2 12 2 10 2 9 13 3 14 2 4 2-25 1-11-1-4-3-1-7v-834z" fill="#01F2A8"/>
<path transform="translate(160,362)" d="m0 0 2 1v51l5 33 1 16-2 16-1 21-1 31v13l1 29-1 36 1 25v117l1 18-2 22-2 9-1 11h-1l-1-25v-360z" fill="#01F2A8"/>
<path transform="translate(588,447)" d="m0 0h2l1 53v388l-3 1-2-1-4-16-1-18 1-2 1-14 2-3 1-38 1-252 2-9v-8l-2-9v-67z" fill="#00F0A6"/>
<path transform="translate(590,1213)" d="m0 0h2l-1 130-1 243-2-2-2-23-1-15-2 25-1 18-1 7-3-2-1-27h1v-56h2l1-18h1l1 9v7l2 1 1 4 1-184 1-24v-15l-1-29v-44z" fill="#00F1A7"/>
<path transform="translate(614,1204)" d="m0 0h51l42 2 3 1 4-1 9 1h12l1 2-18 1h-16l-3-2h-17l-9-1-20-1h-31l-21 1-9 2-4 1-1 4-1 76 1 31-1 22h-2v14l-1 1-1 19h-2l-2 2-1-13-1-4v-15l1-13v-1-9h1l1-29h-2v-19l2-16 3-30v-9l3-11h2v-2l3-2 5-1z" fill="#01F2A8"/>
<path transform="translate(1100,730)" d="m0 0h1l-1 9-4 16-1 6-5 15-9 20-7 12-6 7h-2l-2 4-10 10h-2l-2 4-2 3h-2v2l-10 8-7 5-17 8-15 7-13 5-20 7-14 4-15 1v-2l27-9 29-10 21-10 20-13 11-8 12-12 13-17 11-17 7-14 11-34z" fill="#01F1A7"/>
<path transform="translate(159,1314)" d="m0 0h1v284h2l1 41v74l2 12 2 10 2 9 13 3 14 2 4 2-25 1-11-1-4-3-1-7z" fill="#00EAA3"/>
<path transform="translate(1047,133)" d="m0 0 59 9 25 6 41 11 29 10 28 11 28 12 4 2-1 2-9-3-13-6-6-2-11-4-5-3-7-1-6-3-6-2-7-3-17-5-10-4-17-3-6-2-11-2-14-2-10-3-5-2-7-1v-2l-6-1-19-3h-7l-5-2-11-2z" fill="#00F1A7"/>
<path transform="translate(573,496)" d="m0 0 2 2 2 4 1 20v31l-2 2-2 13h-1l-1-10h-1l-1-16 1-7v-8l-1-4 1-12v-3-5z" fill="#01F2A8"/>
<path transform="translate(680,442)" d="m0 0h39l9 1 33-1 7 2v1l-8 1h-64l-11-1-5-2z" fill="#00F1A7"/>
<path transform="translate(588,447)" d="m0 0h2l1 53v36h-1l-3-17v-67z" fill="#01F2A8"/>
<path transform="translate(973,466)" d="m0 0 7 1 16 7 26 12 5 3 1 2 5 2 11 9 5 5 5 4 7 9-3 1-17-17-13-10-19-11-21-10-15-6z" fill="#00EFA6"/>
<path transform="translate(1262,196)" d="m0 0 5 1 27 15 21 13-4 1-9-4-11-8-11-7-8-4-10-6z" fill="#00F1A7"/>
<path transform="translate(625,443)" d="m0 0 17 2-4 2h-44l3-2 12-1z" fill="#01F2A8"/>
<path transform="translate(160,129)" d="m0 0 2 3-2 56h-1v-57z" fill="#00E09C"/>
<path transform="translate(369,1746)" d="m0 0h35l1 3h-37z" fill="#01F2A8"/>
<path transform="translate(591,438)" d="m0 0h11l6 1-4 3h-8l-7 1-1 3-3-1 4-6z" fill="#01F2A8"/>
<path transform="translate(588,1732)" d="m0 0 2 1v8l-3 6-4 1z" fill="#00F0A7"/>
<path transform="translate(1262,196)" d="m0 0 5 1 18 10-3 1-10-5-10-6z" fill="#00EFA6"/>
<path transform="translate(582,453)" d="m0 0 3 2-5 20h-1l1-14z" fill="#01F2A8"/>
<path transform="translate(276,1747)" d="m0 0h7v2l5-2 3 1-3 2h-11z" fill="#01F2A8"/>
</svg>
